<svg width="70" height="45" viewBox="0 0 70 45" fill="none" xmlns="http://www.w3.org/2000/svg">
<path d="M30.0284 10.9769C30.3207 10.965 30.4817 11.2665 30.6235 11.5121C33.9531 17.2788 37.3744 23.0006 40.6588 28.7885C40.8366 29.1017 42.9634 28.9997 43.3832 29.0063C43.3982 29.5996 43.3995 30.2345 43.3879 30.8288C43.304 35.0986 43.4979 39.448 43.3661 43.7111C42.9498 43.7323 41.1298 43.7842 40.8361 43.6778C40.75 43.5451 40.7768 43.5091 40.7655 43.3248L40.7149 43.2824C40.5055 43.3194 40.097 43.5071 39.8819 43.5969C38.7772 44.058 37.944 44.1204 36.8007 43.9285C33.0009 43.29 30.9305 38.8126 32.8926 35.3322C33.5676 34.2447 34.3956 33.341 35.5663 32.8915C37.7121 32.0675 38.86 32.4409 40.8168 33.2887C40.7672 32.7996 40.7846 31.9113 40.7865 31.391C40.7891 30.6566 40.7679 29.7458 40.822 29.0258C40.0656 28.948 31.4645 28.9537 31.1206 29.066C31.1635 29.887 31.1474 30.7336 31.1385 31.5569C30.2202 31.6488 29.209 31.5292 28.3003 31.5869C28.3184 31.2299 28.3688 29.2384 28.219 28.8605C27.9296 28.1311 27.3705 27.442 26.8193 26.46C25.0177 23.2499 22.9647 19.9473 21.1911 16.7077C21.1553 16.6423 21.2742 16.4689 21.3644 16.3995C22.1753 15.7753 23.1107 15.2814 23.9733 14.7475L28.7953 11.7227C29.139 11.5097 29.7743 11.2558 30.0284 10.9769ZM38.1901 41.3692C39.2916 41.2066 40.2216 40.4453 40.6216 39.3788C41.0217 38.3123 40.8295 37.107 40.119 36.2273C39.4086 35.3476 38.2908 34.9308 37.1964 35.1376C35.5492 35.4487 34.4475 37.0564 34.7182 38.7539C34.9888 40.4513 36.5324 41.6141 38.1901 41.3692Z" fill="black"/>
<path d="M41.0985 1.0122C41.2891 1.01048 41.3754 1.0041 41.4823 1.19072C41.7917 1.73025 42.0726 2.2896 42.3888 2.82472L48.2548 12.8624L53.7688 22.303C55.0793 24.548 56.3822 26.723 57.6372 29.0074C54.6861 28.9702 51.6692 29.0045 48.7134 29.0057C47.669 29.0064 46.2078 29.0536 45.2006 28.9852C44.4544 27.8368 43.8421 26.6621 43.1558 25.4841L39.5635 19.3374L35.2238 11.876L33.4941 8.9156C33.2977 8.58619 32.1609 6.84925 32.2147 6.56334C32.5734 6.18563 34.9488 4.8119 35.5624 4.4312C37.3522 3.32087 39.2878 2.05332 41.0985 1.0122Z" fill="black"/>
<path d="M24.4502 29.0085C24.7938 28.9857 26.7149 28.9303 26.9655 29.0903C27.0083 29.4698 26.9882 30.3046 26.9882 30.7241L26.9884 33.7475L26.9775 43.7058C26.402 43.7372 25.0216 43.7837 24.4691 43.6975C24.377 43.578 24.3997 43.4876 24.3849 43.3109L24.3222 43.2623C24.1212 43.295 23.7927 43.5166 23.5611 43.6059C21.8674 44.2589 20.3986 44.1459 18.758 43.3752C17.5194 42.5268 16.8964 42.0553 16.2701 40.5933C14.4779 36.4096 17.8262 31.7801 22.2542 32.5182C23.0425 32.6496 23.702 32.9684 24.4343 33.2784C24.4023 32.9097 24.4236 32.139 24.4243 31.739C24.4185 30.8288 24.4272 29.9184 24.4502 29.0085ZM21.9321 41.3531C23.6169 41.0444 24.7328 39.383 24.4154 37.6557C24.0981 35.9283 22.4695 34.7989 20.7909 35.1419C19.1358 35.4802 18.0547 37.1245 18.3676 38.8277C18.6805 40.531 20.2707 41.6576 21.9321 41.3531Z" fill="black"/>
<path d="M8.6906 32.4468C10.0489 32.374 10.9595 32.7335 12.1759 33.3015C12.1674 33.1131 12.1767 32.9255 12.1832 32.737C13.0325 32.7221 13.9332 32.7072 14.7787 32.7575C14.7328 33.1751 14.7538 33.8297 14.7536 34.2681L14.7529 36.9245L14.7545 41.502C14.754 42.2267 14.73 42.9837 14.7484 43.7019C14.0006 43.766 12.9789 43.7745 12.2408 43.6994C12.1266 43.6192 12.1621 43.5412 12.1211 43.3452C11.9465 43.2493 11.7259 43.3825 11.5456 43.46C11.1853 43.6149 10.8598 43.7422 10.4807 43.8477C10.3054 43.8889 9.94153 43.9788 9.77295 43.9995C8.37812 44.1625 6.75293 43.7117 5.66006 42.8052C3.24588 40.8029 2.76737 37.2562 4.67172 34.7093C5.80062 33.1995 6.90787 32.709 8.6906 32.4468ZM9.63064 41.356C10.7229 41.1694 11.6329 40.3936 12.0125 39.3253C12.3921 38.2571 12.1826 37.0616 11.4642 36.1963C10.7457 35.3311 9.62944 34.9298 8.54238 35.1461C6.89242 35.4745 5.80567 37.1037 6.10338 38.8025C6.40109 40.5014 7.97276 41.6391 9.63064 41.356Z" fill="black"/>
<path d="M49.5024 32.4485C50.7496 32.3872 51.8527 32.7263 52.957 33.3084C52.9682 33.1382 52.9557 32.9071 53.0533 32.7842C53.334 32.6776 55.1242 32.7358 55.5333 32.7407C55.4913 33.7471 55.5315 35.099 55.532 36.1324C55.5405 38.6581 55.5362 41.1837 55.52 43.7094C55.191 43.7356 53.1979 43.7982 52.9857 43.6477C52.9532 43.5193 52.9391 43.4388 52.9194 43.3092L52.8582 43.2693C52.6066 43.3134 51.7864 43.7145 51.249 43.8525C51.0179 43.9185 50.783 43.9697 50.546 44.0061C49.2504 44.2074 47.4935 43.6489 46.4765 42.8255C44.0423 40.8549 43.5554 37.2283 45.4714 34.697C46.5997 33.2068 47.7182 32.7062 49.5024 32.4485ZM50.4292 41.3572C51.5198 41.1675 52.4269 40.3903 52.8039 39.3223C53.1812 38.2542 52.9699 37.0604 52.251 36.1969C51.5326 35.3333 50.4172 34.9334 49.3312 35.1498C47.6801 35.4789 46.5937 37.1108 46.8941 38.8106C47.1949 40.5103 48.7707 41.6456 50.4292 41.3572Z" fill="black"/>
<path d="M60.9541 32.3168C61.1441 32.3084 61.3345 32.3044 61.5249 32.3047C63.8974 32.3308 66.1985 33.1406 66.1498 35.9656C65.2076 35.9994 64.3698 35.9768 63.4328 35.9278C63.2043 35.0753 63.0117 34.656 62.0756 34.6023C61.4641 34.5672 60.7526 34.5507 60.1874 34.8252C59.9465 34.9423 59.8686 35.2789 59.8074 35.5177L59.9336 35.9682C61.3405 36.9371 64.2509 36.7901 65.6051 38.0855C66.1412 38.5988 66.439 39.0678 66.4801 39.8396C66.5301 40.7749 66.3453 41.707 65.7095 42.4043C64.5388 43.6876 63.3913 43.745 61.8308 43.8367C59.4591 43.8059 56.9668 43.2175 56.7126 40.3336C56.7032 40.2251 56.7169 40.1839 56.7875 40.1096C57.2308 40.0376 59.0608 40.0684 59.5349 40.1212C59.6397 40.5167 59.7099 40.6707 59.875 41.0454C60.7868 41.789 62.6549 41.948 63.5372 41.0366C63.965 40.5944 63.4443 39.9917 63.0237 39.7978C62.6408 39.6173 62.1697 39.5204 61.7555 39.435C59.0912 38.8854 56.221 38.201 57.3322 34.6356C57.8439 32.9937 59.3937 32.4422 60.9541 32.3168Z" fill="black"/>
<path d="M19.0561 20.9531C19.2547 21.003 19.3221 21.0263 19.4305 21.2179C20.7438 23.5397 22.1032 25.8335 23.4526 28.1331C23.4893 28.1958 23.8475 28.8899 23.8632 28.9311L23.8221 28.9788C23.1731 29.0484 21.5657 29.0032 20.8618 29.0033L14.9967 29.0027C14.1195 29.0053 12.2216 29.0639 11.4052 28.9705C11.3684 28.9237 11.3336 28.8752 11.3009 28.8253C11.1239 28.5514 10.1245 26.7544 10.1581 26.5931C10.5049 26.1124 13.1073 24.6267 13.7191 24.253L16.7198 22.4018C17.5063 21.9216 18.2533 21.4109 19.0561 20.9531Z" fill="black"/>
<path d="M28.3213 32.4218C29.2625 32.4083 30.2038 32.4125 31.1448 32.4343C31.1575 34.7075 31.1587 36.9807 31.1484 39.2538C31.1482 40.659 31.2011 42.3177 31.1329 43.6943C30.1395 43.7897 29.2598 43.6849 28.2969 43.7231C28.3586 42.6198 28.3127 41.0699 28.3126 39.9308L28.3213 32.4218Z" fill="black"/>
<path d="M63.7679 27.8992C64.1958 27.9792 64.5582 27.9831 64.9839 27.8555C65.0147 27.8699 65.0447 27.8856 65.0746 27.9026C66.4075 28.656 66.3253 30.5033 64.8312 31.0019C64.1889 31.2163 63.5801 30.859 63.0324 30.5294C62.6948 29.7068 62.732 29.1749 63.0157 28.3478C63.2309 28.2001 63.5309 27.9719 63.7679 27.8992ZM64.88 30.7111C64.9801 30.6754 65.1722 30.613 65.2603 30.5711C65.7276 29.8607 65.8906 29.6481 65.6518 28.774C65.3519 28.432 65.1765 28.132 64.654 28.0992C64.4709 28.0876 63.966 28.1112 63.7902 28.1335C63.6575 28.2011 63.4795 28.2848 63.376 28.3925C62.6888 29.107 62.9023 30.4773 63.9091 30.7469C64.1111 30.801 64.7067 30.8145 64.88 30.7111Z" fill="black" fill-opacity="0.929412"/>
<path d="M63.7035 28.4883C64.074 28.6025 64.246 28.4503 64.8635 28.6817C65.2455 29.3813 64.7312 29.2432 64.6521 29.564C64.7334 29.8777 65.0504 30.1939 65.2768 30.4059L65.243 30.3979C65.1078 30.3653 64.7017 30.2689 64.6367 30.1624C64.5973 29.994 64.4146 29.5972 64.2978 29.4657C64.1339 29.4676 64.279 29.5361 64.1249 29.6599C64.0655 29.5543 64.0223 29.4516 63.926 29.3858C63.8242 29.5552 63.9324 30.1738 63.7874 30.3955L63.7356 30.377C63.6119 30.1833 63.6727 28.7611 63.7035 28.4883ZM64.8819 29.1655C64.8215 29.0292 64.6457 28.8717 64.5182 28.8273C64.1476 28.6983 64.2298 28.9024 63.9273 28.6292C63.8926 28.79 63.8451 28.9371 63.8832 29.0952C64.1211 29.382 64.5404 29.1811 64.8819 29.1655Z" fill="black" fill-opacity="0.945098"/>
<path d="M63.3016 29.5664C63.4218 29.6853 63.3777 29.9337 63.329 30.0782C63.2057 29.9404 63.2742 29.7433 63.3016 29.5664Z" fill="black" fill-opacity="0.0666667"/>
<path d="M63.7676 27.9027L63.7945 27.7109C63.9255 27.8059 64.7294 27.8694 64.8706 27.8128L64.9836 27.8589C64.5579 27.9866 64.1955 27.9827 63.7676 27.9027Z" fill="black" fill-opacity="0.0862745"/>
<path d="M63.7939 27.7086C64.0113 27.6361 64.7828 27.5451 64.87 27.8105C64.7288 27.8671 63.9249 27.8035 63.7939 27.7086Z" fill="black" fill-opacity="0.890196"/>
</svg>
