<svg width="81" height="40" viewBox="0 0 81 40" fill="none" xmlns="http://www.w3.org/2000/svg">
<g clip-path="url(#clip0_4030_4068)">
<path fill-rule="evenodd" clip-rule="evenodd" d="M70.8174 9.13291C71.9144 9.13095 73.4972 9.08236 74.5322 9.25205C75.2609 9.36899 75.9653 9.60766 76.6143 9.9581C77.886 10.6217 78.8327 11.7737 79.2383 13.1495C79.9747 15.5973 78.957 18.0147 76.3887 18.7442C78.4996 19.6336 79.9784 20.2235 80.7021 22.6612C81.1917 24.3117 80.9602 26.0134 80.1533 27.5274C78.1848 31.2669 74.4537 30.8858 70.8242 30.879L65.416 30.8644L65.4219 9.14755L70.8174 9.13291ZM76.2432 21.3849C74.5427 20.1535 70.8935 20.5413 68.7881 20.5509L68.79 27.9015C70.9718 27.9039 75.0742 28.3254 76.542 26.9024C77.7416 25.3032 78.052 22.6949 76.2432 21.3849ZM76.0693 15.4659C76.6217 11.2874 71.5545 12.0957 68.7812 12.1153C68.7845 13.9656 68.8088 15.8564 68.791 17.7032C69.9021 17.7064 71.0213 17.7122 72.1318 17.7149C73.4726 17.7182 74.2272 17.735 75.3115 16.8683C75.7348 16.4206 75.9853 16.1004 76.0693 15.4659Z" fill="#004B84"/>
<path d="M0.830078 0.22272C11.9505 0.0814509 23.3789 0.20923 34.5219 0.209569L80.6686 0.21627L80.6643 3.7441C77.8474 3.66392 74.7157 3.72484 71.8743 3.72475L55.5866 3.72492L0.835763 3.71627L0.830078 0.22272Z" fill="#004B84"/>
<path d="M0.829102 36.1927C4.7339 36.1649 8.63887 36.1582 12.5438 36.1724L33.3324 36.173C45.1314 36.1736 57.1926 36.0387 68.9646 36.1862L68.9623 39.6005L0.83012 39.5966L0.829102 36.1927Z" fill="#004B84"/>
<path d="M1.13082 8.92578C1.89885 9.15164 3.6298 11.2208 4.26165 11.9024L8.56302 16.5351L12.4777 20.7359C13.3013 21.6235 14.7576 23.1722 15.3823 24.1522C15.2519 22.796 15.3228 20.3367 15.3228 18.8853L15.3262 9.14214L18.3852 9.134L18.3868 25.6127C18.3876 27.2347 18.4223 29.4081 18.3489 31.0633C18.2957 31.1228 18.2504 31.1733 18.2132 31.2148C17.224 30.4251 16.5117 29.5541 15.6603 28.6253L12.8199 25.5637L7.93991 20.3151C6.46876 18.7216 5.29949 17.51 4.01254 15.7669C4.31281 18.3839 4.28082 20.6007 4.28167 23.2385L4.27887 30.8708L1.10316 30.8673L1.09857 16.2813C1.09798 13.8861 1.05021 11.3096 1.13082 8.92578Z" fill="#004B84"/>
<path d="M23.5253 21.4859C23.915 20.7798 24.331 19.7235 24.7501 19.0767C25.2565 18.2954 26.0316 17.3257 26.6066 16.5749L29.503 12.7791C30.0135 12.1118 31.9176 9.74939 32.2298 9.13697L36.112 9.13281C35.2525 10.1789 34.2132 11.6649 33.3701 12.7759C31.6746 14.9746 30.0088 17.1959 28.373 19.4394C28.8268 19.8313 31.6293 23.7322 32.1151 24.3946C33.6585 26.5488 35.3303 28.7479 36.9151 30.8806C35.6295 30.8378 34.139 30.8749 32.8374 30.8751C32.5057 30.553 31.8154 29.5267 31.486 29.083L28.2408 24.6734C27.7147 23.9567 26.8012 22.6428 26.2082 22.0456C25.7703 22.0616 24.3823 24.1882 23.8176 24.6194L23.8216 30.8726L20.415 30.8679L20.4169 9.13714L23.8259 9.14053C23.7821 12.787 24.0605 18.0152 23.5253 21.4859Z" fill="#004B84"/>
<path d="M41.0464 9.0728C45.1266 8.77244 46.2693 9.19761 48.8252 12.3183C47.7958 12.8773 47.181 13.433 46.0129 13.9589C45.3083 12.6699 44.4603 11.9863 42.9534 11.9553C42.0641 11.9369 41.2062 11.9678 40.5196 12.6165C40.0209 13.0849 39.737 13.738 39.7347 14.4222C39.6825 18.8633 50.172 17.6365 50.0133 25.3381C49.9939 26.875 49.358 28.3396 48.2482 29.4031C46.7069 30.8789 44.3388 31.2233 42.2895 31.1845C38.4557 30.6566 37.2845 29.8938 35.0391 26.7837C35.712 26.2659 37.1623 25.5969 37.9868 25.1637C39.1858 28.1525 44.0324 29.4511 46.1874 26.6975C46.6034 26.1659 46.7024 25.2462 46.5588 24.5887C46.0879 22.4321 43.4652 21.7447 41.7394 20.911C39.7609 19.9907 37.2451 18.6773 36.7352 16.3102C36.6272 15.3652 36.4519 13.3802 36.7826 12.4959C37.4369 10.7458 39.3959 9.41269 41.0464 9.0728Z" fill="#004B84"/>
<path d="M50.8193 9.1447L64.3035 9.14453L64.313 12.1109L54.2672 12.1186L54.2744 20.9326C55.2638 20.9299 63.1781 20.8331 63.4495 21.0288L63.438 23.9487C62.5971 23.8966 61.2644 23.9385 60.393 23.9389L54.2693 23.9381L54.2667 30.8765L50.8198 30.8634C50.9018 28.2605 50.833 25.3608 50.8316 22.7263L50.8193 9.1447Z" fill="#004B84"/>
<path d="M77.5538 36.0477C78.1062 35.9754 79.1294 35.9672 79.3042 36.673C78.975 36.8875 77.8092 36.4484 77.2925 36.8255C76.6188 37.3171 77.1805 38.6261 77.9017 38.7498C78.2911 38.8165 78.499 38.6239 78.8087 38.4058C78.8291 38.3897 79.1023 38.2686 79.1438 38.2495L79.3517 38.3669C79.3865 38.4773 79.3839 38.5767 79.389 38.6921C78.6475 40.096 77.2136 39.5053 76.416 38.4805L76.4211 36.6922C76.8267 36.4134 77.1185 36.269 77.5538 36.0477Z" fill="#004B84"/>
<path d="M73.9468 35.9453C74.1801 35.9602 74.2709 35.9444 74.4601 36.0797C74.7376 36.5467 74.6146 38.076 74.623 38.7458C75.0821 38.744 75.922 38.5909 76.1825 38.972C76.1672 39.2012 76.163 39.2317 76.0578 39.435L73.8145 39.4324C73.9248 38.5336 73.7126 36.6433 73.9468 35.9453Z" fill="#004B84"/>
<path d="M71.1121 36.0181C71.4174 36.0084 71.4701 35.9565 71.705 36.0894C71.9727 36.5525 71.8477 38.1032 71.8507 38.7513C72.3038 38.7535 72.8175 38.6377 73.2144 38.7946C73.4303 39.0315 73.3606 39.0106 73.3775 39.4168L71.078 39.4363C71.0766 38.2955 71.0669 37.1581 71.1121 36.0181Z" fill="#004B84"/>
</g>
<defs>
<clipPath id="clip0_4030_4068">
<rect width="81" height="39.8212" fill="white"/>
</clipPath>
</defs>
</svg>
