<?xml version="1.0" encoding="utf-8"?>
<!-- Generator: Adobe Illustrator 27.0.0, SVG Export Plug-In . SVG Version: 6.00 Build 0)  -->
<svg version="1.1" id="Layer_1" xmlns="http://www.w3.org/2000/svg" xmlns:xlink="http://www.w3.org/1999/xlink" x="0px" y="0px"
	 viewBox="0 0 1403 650.5" style="enable-background:new 0 0 1403 650.5;" xml:space="preserve">
<style type="text/css">
	.st0{enable-background:new    ;}
	.st1{fill:#AA1213;}
</style>
<g>
	<g>
		<g transform="translate(141.33984, 215.85)">
			<g>
				<path d="M426.8,263v-43.9h44.9v7.5H437v9.8h20.3v7.5H437v10.9h35.1v8.2H426.8z"/>
			</g>
		</g>
	</g>
	<g>
		<g transform="translate(159.44818, 215.85)">
			<g>
				<path d="M466.1,263l20.8-22.5l-21.2-21.4h13.6l14,14.9l13.3-14.9h11.7l-19.1,20.2l23.7,23.7H509l-16-17l-14.8,17H466.1z"/>
			</g>
		</g>
	</g>
	<g>
		<g transform="translate(176.66633, 215.85)">
			<g>
				<path d="M549.6,226.7h-23v11.6h23c1.8,0,3-0.2,3.6-0.7c0.7-0.5,1-1.4,1-2.8v-4.6c0-1.3-0.3-2.2-1-2.7
					C552.5,227,551.3,226.7,549.6,226.7z M516.6,263v-43.9h37.5c3.5,0,6,0.7,7.5,2c1.6,1.3,2.4,3.5,2.4,6.5v9.8c0,3-0.8,5.1-2.4,6.5
					c-1.5,1.3-4.1,2-7.5,2h-27.5V263H516.6z"/>
			</g>
		</g>
	</g>
	<g>
		<g transform="translate(194.493557, 215.85)">
			<g>
				<path d="M561.9,263v-43.9h44.9v7.5h-34.7v9.8h20.3v7.5h-20.3v10.9h35.1v8.2H561.9z"/>
			</g>
		</g>
	</g>
	<g>
		<g transform="translate(212.601897, 215.85)">
			<g>
				<path d="M640.9,226.7h-23v12.2h23c1.8,0,3-0.2,3.6-0.8c0.7-0.5,1-1.4,1-2.7v-5.3c0-1.3-0.3-2.2-1-2.7
					C643.9,227,642.7,226.7,640.9,226.7z M607.9,263v-43.9h37.5c3.5,0,6,0.7,7.5,2c1.6,1.3,2.4,3.5,2.4,6.5v10.3
					c0,3-0.8,5.1-2.4,6.5c-1.5,1.4-4.1,2-7.5,2h-5.8l20.3,16.5h-14.7l-17.7-16.5h-9.7V263H607.9z"/>
			</g>
		</g>
	</g>
	<g>
		<g transform="translate(231.834688, 215.85)">
			<g>
				<path d="M656.8,263v-43.9H667V263H656.8z"/>
			</g>
		</g>
	</g>
	<g>
		<g transform="translate(241.041127, 215.85)">
			<g>
				<path d="M680.2,263v-43.9h44.9v7.5h-34.7v9.8h20.3v7.5h-20.3v10.9h35.1v8.2H680.2z"/>
			</g>
		</g>
	</g>
	<g>
		<g transform="translate(259.149468, 215.85)">
			<g>
				<path d="M726.1,263v-43.9h7L764,245c1.1,0.9,2,1.7,2.8,2.5c0.8,0.7,1.5,1.5,2.2,2.3c-0.2-2.5-0.3-4.2-0.3-5.3
					c0-1-0.1-1.8-0.1-2.4v-23h9.1V263h-7l-32.2-27.1c-0.8-0.7-1.5-1.3-2-1.9c-0.6-0.6-1.1-1.1-1.6-1.7c0.1,1.3,0.2,2.6,0.3,3.8
					c0.1,1.2,0.1,2.3,0.1,3.2V263H726.1z"/>
			</g>
		</g>
	</g>
	<g>
		<g transform="translate(279.998656, 215.85)">
			<g>
				<path d="M816,227h-27.5v27.8H816v-9.5l10.2,2.2v5.1c0,4-0.8,6.8-2.3,8.2c-1.5,1.4-4.3,2.2-8.6,2.2h-26.2c-4.3,0-7.2-0.7-8.7-2.2
					c-1.5-1.5-2.2-4.2-2.2-8.2v-23.1c0-4,0.7-6.7,2.2-8.2c1.5-1.5,4.4-2.2,8.7-2.2h26.2c4.2,0,7.1,0.7,8.6,2.2
					c1.5,1.5,2.3,4.2,2.3,8.2v4.2l-10.2,1.6V227z"/>
			</g>
		</g>
	</g>
	<g>
		<g transform="translate(299.208021, 215.85)">
			<g>
				<path d="M828.1,263v-43.9h44.9v7.5h-34.7v9.8h20.3v7.5h-20.3v10.9h35.1v8.2H828.1z"/>
			</g>
		</g>
	</g>
	<g>
		<g transform="translate(317.316361, 215.85)">
			<g>
				<path d="M912.1,226.8h-28.7v9.4h27.3c4.3,0,7.2,0.7,8.7,2.2c1.5,1.5,2.3,4.2,2.3,8.2v6c0,4-0.8,6.7-2.3,8.2
					c-1.5,1.5-4.4,2.2-8.7,2.2h-27.1c-4.3,0-7.2-0.7-8.7-2.2c-1.5-1.5-2.3-4.2-2.3-8.2v-1.2l9-1.9v5.2h31v-10h-27.3
					c-4.3,0-7.2-0.7-8.7-2.2c-1.5-1.5-2.2-4.2-2.2-8.2v-4.8c0-4,0.7-6.7,2.2-8.2c1.5-1.5,4.4-2.2,8.7-2.2h24.9c4.1,0,7,0.7,8.5,2.2
					c1.5,1.4,2.3,3.9,2.3,7.5v0.9l-9,2.1V226.8z"/>
			</g>
		</g>
	</g>
	<g class="st0">
		<path class="st1" d="M167.3,379.6l57.2-161.4c2.2-6.1,8-10.2,14.5-10.2h30.3l18.2,49.9l-26.6,17.5l-9.6-30.9h-2.9l-21.5,66.2
			l2-0.1c0.9,0,1.7-0.4,2.3-0.9c8.6-7.3,71.8-59.3,158.3-90c73-25.9,98.6-30.3,135.5-36.3s97.7-12.3,138.3-11.9
			c172.3,2,222.5,17.8,263.5,24.3c41,6.5,113.3,22.9,113.3,22.9S935.3,198.1,846.1,189c-89.2-9.1-156.4-7.9-156.4-7.9
			s-52.7-1.3-134.8,11.5c-80.9,12.6-105.7,23-157.9,41.7c-33.6,12-84.8,42.9-95.7,49.5c-1.3,0.8-2.1,2.2-2.1,3.7l0,0
			c0,0.9,0.2,1.8,0.5,2.7l32.4,89.4h-36.9L270.3,306l-58.6,53.2l-7,20.4H167.3z"/>
		<path class="st1" d="M469.1,302.6c-3-39.3-24.1-50.5-36.2-54.5c-9.4-3.2-21.2-6.3-41.1-3c-11,1.8-22.1,6.4-31.8,14.3
			c-15.4,12.6-16.4,31.2-16.4,38.3v150.6l18.2,0.1c8.4,0,15.3-6.7,15.4-15.1l0-1.1v-68.5h2c0,0,6.6,19.4,40.1,18.7
			C456.3,381.6,472,341.4,469.1,302.6z M435.1,319.2c0,15.8-9.5,34.1-28.8,34.1h0c-18,0-28.8-18.3-28.8-34.1V307
			c0-15.8,9.5-34.2,28.8-34.1h0c19-0.1,28.8,18.3,28.8,34.1V319.2z"/>
		<path class="st1" d="M604.3,302.6c-3-39.3-24.1-50.5-36.2-54.5c-9.4-3.2-21.2-6.3-41.1-3c-11,1.8-22.1,6.4-31.8,14.3
			c-15.4,12.6-16.4,31.2-16.4,38.3v150.6l18.2,0.1c8.4,0,15.3-6.7,15.4-15.1l0-1.1v-68.5h2c0,0,6.6,19.4,40.1,18.7
			C591.5,381.6,607.2,341.4,604.3,302.6z M570.2,319.2c0,15.8-9.5,34.1-28.8,34.1h0c-18,0-28.8-18.3-28.8-34.1V307
			c0-15.8,9.5-34.2,28.8-34.1h0c19-0.1,28.8,18.3,28.8,34.1V319.2z"/>
		<path class="st1" d="M757.4,243.7c0,0-60.3-2.8-60.3,66.7c0,31.6,10.2,72.1,60.2,72.1c50,0,60.4-40.5,60.4-72.1
			C817.7,240.8,757.4,243.7,757.4,243.7z M784.8,318.5c0,20.3-11.7,34.1-28.8,34.1c-17,0-28.8-14.4-28.8-34.1v-12.2
			c0-19.2,11.9-33.7,28.7-33.7c16.9,0,28.8,14.4,28.8,33.7V318.5z"/>
		<path class="st1" d="M616.6,379.6h34.2v-69.1c0-15.4,12.5-27.8,27.8-27.8h12.6v-35.8h-12.7c-34.6,0-62.6,28.2-62.3,62.8
			L616.6,379.6z"/>
		<path class="st1" d="M812.1,246.8l46.5,132.8h38.2l46.3-132.8H920c-6.7,0-12.5,4.3-14.6,10.6L879,338.6h-2.6l-30-91.8L812.1,246.8
			z"/>
		<path class="st1" d="M1018.4,343.3c-6.7,7.4-17.1,11.3-28.2,8.6c-12.8-3.1-17.8-15.3-17.8-28.5l85.7,0c0.4-4.3,0.6-8.5,0.6-12.6
			c0-69.1-60.1-67-60.1-67s-59.9-2.1-59.9,67c0,31.5,10.1,71.7,59.9,71.7c35.2,0,50.6-20.1,56.6-43l-27.9,0
			C1023.9,339.4,1020.7,340.8,1018.4,343.3z M997.7,272.8c17.1,0,27.2,11.9,28.1,26.9c0,0,0,0.1,0,0.1c0,0-53.5,0-53.5-0.1
			C973.1,284.8,982.8,272.8,997.7,272.8z"/>
		<g>
			<polygon class="st1" points="1062.4,195.2 1057.1,193.8 1061.6,224.2 1042.9,248.6 1048.3,250 1076.2,227.9 			"/>
			<polygon class="st1" points="1036.6,206.7 1033.3,205.8 1032.4,216.6 1027.9,226.6 1031.2,227.4 1040.1,218.5 			"/>
			<path class="st1" d="M1096.2,233.2c-0.4,1.7-3.1,2.3-4.4,2.4c-2.1,0.3-4.7,0-7-0.5c-13-2.8-51.2-14.8-51.2-14.8l1.7-6.4
				c0,0,39.4,8.1,52,12c2.3,0.7,4.6,1.8,6.4,3C1094.6,229.7,1096.6,231.6,1096.2,233.2z"/>
		</g>
		<path class="st1" d="M1067.3,323.4c3,39.3,24.1,50.5,36.2,54.5c9.4,3.2,21.2,6.3,41.1,3c11-1.8,22.1-6.4,31.8-14.3
			c15.4-12.6,16.4-31.2,16.4-38.3v-105c0-8.5-6.8-15.3-15.3-15.4h-18.3l0,54.4h-2c0,0-6.6-19.4-40.1-18.7
			C1080,244.4,1064.4,284.7,1067.3,323.4z M1101.3,306.8c0-15.8,9.5-34.1,28.8-34.1h0c18,0,28.8,18.3,28.8,34.1V319
			c0,15.8-9.5,34.2-28.8,34.1h0c-19,0.1-28.8-18.3-28.8-34.1V306.8z"/>
	</g>
</g>
</svg>
