<svg width="173" height="81" viewBox="0 0 173 81" fill="none" xmlns="http://www.w3.org/2000/svg">
<path d="M69.8711 58.9282V53.5293H75.393V54.4517H71.1255V55.6569H73.6221V56.5793H71.1255V57.9198H75.4422V58.9282H69.8711Z" fill="white"/>
<path d="M76.932 58.9282L79.49 56.1611L76.8828 53.5293H78.5554L80.2771 55.3617L81.9128 53.5293H83.3517L81.0027 56.0135L83.9174 58.9282H82.2079L80.2402 56.8375L78.4201 58.9282H76.932Z" fill="white"/>
<path d="M89.3182 54.464H86.4896V55.8906H89.3182C89.5396 55.8906 89.6871 55.866 89.7609 55.8045C89.847 55.743 89.8839 55.6323 89.8839 55.4601V54.8944C89.8839 54.7345 89.847 54.6238 89.7609 54.5623C89.6748 54.5009 89.5273 54.464 89.3182 54.464ZM85.2598 58.9282V53.5293H89.8716C90.302 53.5293 90.6095 53.6154 90.794 53.7753C90.9907 53.9351 91.0891 54.2057 91.0891 54.5746V55.7799C91.0891 56.1488 90.9907 56.4071 90.794 56.5793C90.6095 56.7391 90.2897 56.8252 89.8716 56.8252H86.4896V58.9282H85.2598Z" fill="white"/>
<path d="M93.0234 58.9282V53.5293H98.5453V54.4517H94.2779V55.6569H96.7744V56.5793H94.2779V57.9198H98.5945V58.9282H93.0234Z" fill="white"/>
<path d="M104.966 54.464H102.137V55.9643H104.966C105.187 55.9643 105.335 55.9398 105.408 55.866C105.494 55.8045 105.531 55.6938 105.531 55.5339V54.8821C105.531 54.7222 105.494 54.6115 105.408 54.55C105.335 54.5009 105.187 54.464 104.966 54.464ZM100.907 58.9282V53.5293H105.519C105.95 53.5293 106.257 53.6154 106.441 53.7753C106.638 53.9351 106.737 54.2057 106.737 54.5746V55.8414C106.737 56.2103 106.638 56.4686 106.441 56.6407C106.257 56.8129 105.937 56.8867 105.519 56.8867H104.806L107.302 58.9159H105.494L103.318 56.8867H102.125V58.9282H100.907Z" fill="white"/>
<path d="M109.287 58.9282V53.5293H110.542V58.9282H109.287Z" fill="white"/>
<path d="M113.297 58.9282V53.5293H118.819V54.4517H114.551V55.6569H117.048V56.5793H114.551V57.9198H118.868V58.9282H113.297Z" fill="white"/>
<path d="M121.169 58.9282V53.5293H122.03L125.83 56.7145C125.965 56.8252 126.076 56.9236 126.174 57.022C126.273 57.1081 126.359 57.2065 126.445 57.3049C126.42 56.9974 126.408 56.7883 126.408 56.653C126.408 56.5301 126.396 56.4317 126.396 56.3579V53.5293H127.515V58.9282H126.654L122.694 55.5954C122.596 55.5093 122.509 55.4355 122.448 55.3617C122.374 55.2879 122.313 55.2265 122.251 55.1527C122.263 55.3125 122.276 55.4724 122.288 55.62C122.3 55.7676 122.3 55.9029 122.3 56.0135V58.9282H121.169Z" fill="white"/>
<path d="M134.789 54.5009H131.407V57.9198H134.789V56.7514L136.043 57.022V57.6492C136.043 58.1411 135.945 58.4855 135.76 58.6577C135.576 58.8298 135.232 58.9282 134.703 58.9282H131.481C130.952 58.9282 130.595 58.8421 130.411 58.6577C130.226 58.4732 130.14 58.1411 130.14 57.6492V54.8083C130.14 54.3164 130.226 53.9843 130.411 53.7999C130.595 53.6154 130.952 53.5293 131.481 53.5293H134.703C135.219 53.5293 135.576 53.6154 135.76 53.7999C135.945 53.9843 136.043 54.3164 136.043 54.8083V55.3248L134.789 55.5216V54.5009Z" fill="white"/>
<path d="M138.64 58.9282V53.5293H144.162V54.4517H139.894V55.6569H142.391V56.5793H139.894V57.9198H144.211V58.9282H138.64Z" fill="white"/>
<path d="M151.197 54.4763H147.667V55.6323H151.024C151.553 55.6323 151.91 55.7184 152.094 55.9029C152.279 56.0873 152.377 56.4194 152.377 56.9113V57.6492C152.377 58.1411 152.279 58.4732 152.094 58.6577C151.91 58.8421 151.553 58.9282 151.024 58.9282H147.692C147.163 58.9282 146.806 58.8421 146.622 58.6577C146.437 58.4732 146.339 58.1411 146.339 57.6492V57.5016L147.446 57.268V57.9075H151.258V56.6776H147.901C147.372 56.6776 147.015 56.5916 146.831 56.4071C146.646 56.2226 146.56 55.8906 146.56 55.3986V54.8083C146.56 54.3164 146.646 53.9843 146.831 53.7999C147.015 53.6154 147.372 53.5293 147.901 53.5293H150.963C151.467 53.5293 151.824 53.6154 152.008 53.7999C152.193 53.972 152.291 54.2795 152.291 54.7222V54.8329L151.184 55.0912V54.4763H151.197Z" fill="white"/>
<path d="M20.5752 46.7218L27.6098 26.8725C27.8803 26.1223 28.5936 25.618 29.393 25.618H33.1194L35.3577 31.7549L32.0863 33.907L30.9057 30.1069H30.5491L27.9049 38.2483L28.1509 38.236C28.2616 38.236 28.36 38.1868 28.4338 38.1253C29.4914 37.2276 37.2639 30.8325 47.9019 27.0569C56.8796 23.8717 60.0279 23.3306 64.566 22.5927C69.104 21.8548 76.5813 21.08 81.5744 21.1292C102.764 21.3751 108.938 23.3183 113.98 24.1176C119.023 24.917 127.914 26.9339 127.914 26.9339C127.914 26.9339 115.026 24.4005 104.056 23.2814C93.0856 22.1622 84.8212 22.3098 84.8212 22.3098C84.8212 22.3098 78.34 22.1499 68.2431 23.7241C58.2939 25.2737 55.2439 26.5527 48.8242 28.8525C44.692 30.3283 38.3953 34.1284 37.0548 34.9401C36.8949 35.0385 36.7966 35.2107 36.7966 35.3951C36.7966 35.5058 36.8212 35.6165 36.8581 35.7272L40.8427 46.7218H36.3046L33.2424 37.6703L26.0356 44.213L25.1747 46.7218H20.5752Z" fill="white"/>
<path d="M57.6911 37.252C57.3222 32.4188 54.7272 31.0414 53.2392 30.5495C52.0831 30.1559 50.6319 29.7747 48.1846 30.1805C46.8318 30.4019 45.4667 30.9676 44.2737 31.9392C42.3798 33.4887 42.2568 35.7762 42.2568 36.6494V55.1705L44.4951 55.1828C45.5282 55.1828 46.3767 54.3588 46.389 53.3258V53.1905V44.7662H46.635C46.635 44.7662 47.4467 47.1521 51.5666 47.066C56.1169 46.9676 58.0478 42.0237 57.6911 37.252ZM53.5097 39.2935C53.5097 41.2366 52.3414 43.4872 49.9678 43.4872C47.7541 43.4872 46.4259 41.2366 46.4259 39.2935V37.7931C46.4259 35.85 47.5943 33.5871 49.9678 33.5994C52.3045 33.5871 53.5097 35.85 53.5097 37.7931V39.2935Z" fill="white"/>
<path d="M74.3181 37.252C73.9491 32.4188 71.3542 31.0414 69.8661 30.5495C68.7101 30.1559 67.2589 29.7747 64.8115 30.1805C63.4587 30.4019 62.0936 30.9676 60.9007 31.9392C59.0068 33.4887 58.8838 35.7762 58.8838 36.6494V55.1705L61.1221 55.1828C62.1551 55.1828 63.0037 54.3588 63.016 53.3258V53.1905V44.7662H63.262C63.262 44.7662 64.0736 47.1521 68.1936 47.066C72.7439 46.9676 74.6747 42.0237 74.3181 37.252ZM70.1244 39.2935C70.1244 41.2366 68.956 43.4872 66.5825 43.4872C64.3688 43.4872 63.0406 41.2366 63.0406 39.2935V37.7931C63.0406 35.85 64.2089 33.5871 66.5825 33.5994C68.9192 33.5871 70.1244 35.85 70.1244 37.7931V39.2935Z" fill="white"/>
<path d="M93.1473 30.0089C93.1473 30.0089 85.7314 29.6646 85.7314 38.2119C85.7314 42.0981 86.9859 47.0789 93.135 47.0789C99.2841 47.0789 100.563 42.0981 100.563 38.2119C100.563 29.6523 93.1473 30.0089 93.1473 30.0089ZM96.517 39.208C96.517 41.7046 95.0781 43.4017 92.9751 43.4017C90.8844 43.4017 89.4332 41.6308 89.4332 39.208V37.7076C89.4332 35.3464 90.8967 33.5631 92.9628 33.5631C95.0412 33.5631 96.5047 35.3341 96.5047 37.7076V39.208H96.517Z" fill="white"/>
<path d="M75.8307 46.7221H80.0367V38.224C80.0367 36.3301 81.574 34.8051 83.4556 34.8051H85.0052V30.4023H83.4433C79.1882 30.4023 75.7446 33.8704 75.7815 38.1256L75.8307 46.7221Z" fill="white"/>
<path d="M99.874 30.3896L105.593 46.7217H110.291L115.985 30.3896H113.144C112.32 30.3896 111.607 30.9185 111.348 31.6933L108.102 41.6794H107.782L104.092 30.3896H99.874Z" fill="white"/>
<path d="M125.245 42.2571C124.421 43.1672 123.142 43.6468 121.777 43.3148C120.203 42.9335 119.588 41.4331 119.588 39.8098H130.127C130.177 39.2809 130.201 38.7644 130.201 38.2602C130.201 29.7621 122.81 30.0204 122.81 30.0204C122.81 30.0204 115.443 29.7621 115.443 38.2602C115.443 42.1341 116.685 47.078 122.81 47.078C127.139 47.078 129.033 44.6061 129.771 41.7898H126.34C125.921 41.7775 125.528 41.9497 125.245 42.2571ZM122.699 33.5869C124.802 33.5869 126.044 35.0504 126.155 36.8951V36.9074C126.155 36.9074 119.576 36.9074 119.576 36.8951C119.674 35.0627 120.867 33.5869 122.699 33.5869Z" fill="white"/>
<path d="M130.657 24.0442L130.006 23.8721L130.559 27.6107L128.259 30.6115L128.923 30.7837L132.355 28.0658L130.657 24.0442Z" fill="white"/>
<path d="M127.484 25.4583L127.079 25.3477L126.968 26.6759L126.415 27.9057L126.82 28.0041L127.915 26.9095L127.484 25.4583Z" fill="white"/>
<path d="M134.814 28.7173C134.765 28.9264 134.433 29.0002 134.273 29.0125C134.015 29.0494 133.695 29.0125 133.412 28.951C131.814 28.6066 127.116 27.1308 127.116 27.1308L127.325 26.3438C127.325 26.3438 132.17 27.3399 133.72 27.8195C134.003 27.9056 134.286 28.0409 134.507 28.1885C134.618 28.2869 134.864 28.5205 134.814 28.7173Z" fill="white"/>
<path d="M131.26 39.8099C131.628 44.6431 134.223 46.0205 135.711 46.5125C136.868 46.906 138.319 47.2873 140.766 46.8814C142.119 46.66 143.484 46.0943 144.677 45.1228C146.571 43.5732 146.694 41.2857 146.694 40.4125V27.4994C146.694 26.454 145.858 25.6178 144.812 25.6055H142.562V32.2957H142.316C142.316 32.2957 141.504 29.9099 137.384 29.9959C132.821 30.0943 130.903 35.0505 131.26 39.8099ZM135.441 37.7684C135.441 35.8253 136.609 33.5747 138.983 33.5747C141.196 33.5747 142.525 35.8253 142.525 37.7684V39.2688C142.525 41.2119 141.356 43.4748 138.983 43.4625C136.646 43.4748 135.441 41.2119 135.441 39.2688V37.7684Z" fill="white"/>
</svg>
