<svg width="28" height="28" viewBox="0 0 28 28" fill="none" xmlns="http://www.w3.org/2000/svg">
<path d="M13.667 0.00195312C19.9067 0.00195312 23.0389 0.00205612 25.1855 2.14844C27.3335 4.2951 27.334 7.42761 27.334 13.6689C27.334 19.9103 27.3335 23.0438 25.1855 25.1904C23.0376 27.3356 19.9068 27.3359 13.667 27.3359C7.42699 27.3359 4.2951 27.3351 2.14844 25.1885C0.000576257 23.0418 0 19.9101 0 13.6689C0 7.42761 0.000437386 4.29413 2.14844 2.14746C4.2951 0.00224963 7.42711 0.00195312 13.667 0.00195312ZM13.667 2.00195C7.97899 2.00195 5.12419 2.00214 3.56152 3.56348C2.00019 5.12348 2 7.97961 2 13.6689C2 19.3583 2.00019 22.2144 3.56152 23.7744C5.02856 25.2414 7.63879 25.3286 12.667 25.334L12.7275 17.3359H11.1094C10.5574 17.3359 10.1094 16.8879 10.1094 16.3359C10.1094 15.784 10.5574 15.3359 11.1094 15.3359H12.7432L12.7764 10.875C12.7897 8.94567 14.3749 7.37598 16.3096 7.37598H20.2344C20.7864 7.37598 21.2344 7.82398 21.2344 8.37598C21.2344 8.92798 20.7864 9.37598 20.2344 9.37598H16.3096C15.4696 9.37598 14.7817 10.055 14.7764 10.8896L14.7432 15.3359H17.5137C18.0655 15.3361 18.5136 15.7841 18.5137 16.3359C18.5137 16.8878 18.0655 17.3358 17.5137 17.3359H14.7275L14.667 25.334C19.695 25.3286 22.3042 25.2414 23.7725 23.7744C25.3338 22.2144 25.334 19.3583 25.334 13.6689C25.334 7.97961 25.3338 5.12348 23.7725 3.56348C22.2111 2.00214 19.355 2.00195 13.667 2.00195Z" fill="#F7FAFF"/>
</svg>
