<svg width="28" height="28" viewBox="0 0 28 28" fill="none" xmlns="http://www.w3.org/2000/svg">
<path d="M13.7432 27.3359C16.6641 27.336 18.9588 27.3356 20.75 27.0947C22.5854 26.8479 24.0414 26.3317 25.1855 25.1875C26.3297 24.0433 26.846 22.5873 27.0928 20.752C27.3336 18.9607 27.334 16.6661 27.334 13.7451V13.5928C27.334 10.6718 27.3336 8.37716 27.0928 6.58594C26.846 4.75057 26.3297 3.29458 25.1855 2.15039C24.0414 1.00621 22.5854 0.489965 20.75 0.243164C18.9588 0.00234032 16.6641 0.00193405 13.7432 0.00195312H13.5908C10.6699 0.00193405 8.37521 0.00234032 6.58398 0.243164C4.74862 0.489967 3.29262 1.0062 2.14844 2.15039C1.00425 3.29458 0.488013 4.75057 0.241211 6.58594C0.000387344 8.37716 -1.81198e-05 10.6718 0 13.5928L0 13.7451C-1.81198e-05 16.6661 0.000387344 18.9607 0.241211 20.752C0.488013 22.5873 1.00425 24.0433 2.14844 25.1875C3.29262 26.3317 4.74862 26.8479 6.58398 27.0947C8.37521 27.3356 10.6699 27.336 13.5908 27.3359H13.7432ZM13.667 25.3359C10.6532 25.3359 8.49312 25.3331 6.85059 25.1123C5.23701 24.8953 4.27318 24.4841 3.5625 23.7734C2.85182 23.0628 2.44061 22.0989 2.22363 20.4854C2.0028 18.8428 2 16.6828 2 13.6689C2 10.6551 2.0028 8.49507 2.22363 6.85254C2.44061 5.23896 2.85182 4.27513 3.5625 3.56445C4.27318 2.85377 5.23701 2.44256 6.85059 2.22559C8.49312 2.00475 10.6532 2.00195 13.667 2.00195C16.6808 2.00195 18.8409 2.00475 20.4834 2.22559C22.097 2.44256 23.0608 2.85377 23.7715 3.56445C24.4822 4.27513 24.8934 5.23896 25.1104 6.85254C25.3312 8.49507 25.334 10.6551 25.334 13.6689C25.334 16.6828 25.3312 18.8428 25.1104 20.4854C24.8934 22.0989 24.4822 23.0628 23.7715 23.7734C23.0608 24.4841 22.097 24.8953 20.4834 25.1123C18.8409 25.3331 16.6808 25.3359 13.667 25.3359ZM21.0107 7.66895C21.747 7.66895 22.3436 7.07217 22.3438 6.33594C22.3438 5.59956 21.7471 5.00195 21.0107 5.00195H20.999C20.2626 5.00195 19.665 5.59956 19.665 6.33594C19.6652 7.07217 20.2628 7.66895 20.999 7.66895H21.0107ZM13.667 20.6689C17.533 20.6689 20.667 17.5349 20.667 13.6689C20.667 9.80295 17.533 6.66895 13.667 6.66895C9.801 6.66895 6.66699 9.80295 6.66699 13.6689C6.66699 17.5349 9.801 20.6689 13.667 20.6689ZM13.667 18.6689C10.9056 18.6689 8.66699 16.4304 8.66699 13.6689C8.66699 10.9075 10.9056 8.66895 13.667 8.66895C16.4284 8.66895 18.667 10.9075 18.667 13.6689C18.667 16.4304 16.4284 18.6689 13.667 18.6689Z" fill="#F7FAFF"/>
</svg>
