<svg width="28" height="28" viewBox="0 0 28 28" fill="none" xmlns="http://www.w3.org/2000/svg">
<path d="M13.7432 27.3359C16.6641 27.336 18.9588 27.3356 20.75 27.0947C22.5854 26.8479 24.0414 26.3317 25.1855 25.1875C26.3297 24.0433 26.846 22.5873 27.0928 20.752C27.3336 18.9607 27.334 16.6661 27.334 13.7451V13.5928C27.334 10.6718 27.3336 8.37716 27.0928 6.58594C26.846 4.75057 26.3297 3.29458 25.1855 2.15039C24.0414 1.00621 22.5854 0.489965 20.75 0.243164C18.9588 0.00234032 16.6641 0.00193405 13.7432 0.00195312H13.5908C10.6699 0.00193405 8.37521 0.00234032 6.58398 0.243164C4.74862 0.489967 3.29262 1.0062 2.14844 2.15039C1.00425 3.29458 0.488013 4.75057 0.241211 6.58594C0.000387344 8.37716 -1.81198e-05 10.6718 0 13.5928L0 13.7451C-1.81198e-05 16.6661 0.000387344 18.9607 0.241211 20.752C0.488013 22.5873 1.00425 24.0433 2.14844 25.1875C3.29262 26.3317 4.74862 26.8479 6.58398 27.0947C8.37521 27.3356 10.6699 27.336 13.5908 27.3359H13.7432ZM13.667 25.3359C10.6532 25.3359 8.49312 25.3331 6.85059 25.1123C5.23701 24.8953 4.27318 24.4841 3.5625 23.7734C2.85182 23.0628 2.44061 22.0989 2.22363 20.4854C2.0028 18.8428 2 16.6828 2 13.6689C2 10.6551 2.0028 8.49507 2.22363 6.85254C2.44061 5.23896 2.85182 4.27513 3.5625 3.56445C4.27318 2.85377 5.23701 2.44256 6.85059 2.22559C8.49312 2.00475 10.6532 2.00195 13.667 2.00195C16.6808 2.00195 18.8409 2.00475 20.4834 2.22559C22.097 2.44256 23.0608 2.85377 23.7715 3.56445C24.4822 4.27513 24.8934 5.23896 25.1104 6.85254C25.3312 8.49507 25.334 10.6551 25.334 13.6689C25.334 16.6828 25.3312 18.8428 25.1104 20.4854C24.8934 22.0989 24.4822 23.0628 23.7715 23.7734C23.0608 24.4841 22.097 24.8953 20.4834 25.1123C18.8409 25.3331 16.6808 25.3359 13.667 25.3359ZM7.01074 8.33594C7.74712 8.33594 8.34473 7.73833 8.34473 7.00195C8.34455 6.26572 7.74701 5.66895 7.01074 5.66895H6.99902C6.26278 5.66898 5.66619 6.26575 5.66602 7.00195C5.66602 7.73831 6.26268 8.3359 6.99902 8.33594H7.01074ZM7 21.3359C7.55218 21.3359 7.99982 20.8881 8 20.3359L8 11.002C7.99983 10.4498 7.55218 10.002 7 10.002C6.44797 10.0021 6.00017 10.4499 6 11.002L6 20.3359C6.00018 20.888 6.44797 21.3358 7 21.3359ZM20.334 21.3359C20.886 21.3358 21.3338 20.888 21.334 20.3359V15.002C21.3338 12.2408 19.0952 10.0021 16.334 10.002C15.2085 10.002 14.1696 10.3743 13.334 11.002C13.3338 10.4499 12.886 10.0021 12.334 10.002C11.7818 10.002 11.3342 10.4498 11.334 11.002L11.334 20.3359C11.3342 20.8881 11.7818 21.3359 12.334 21.3359C12.886 21.3358 13.3338 20.888 13.334 20.3359L13.334 15.002C13.3342 13.3452 14.6772 12.002 16.334 12.002C17.9906 12.0021 19.3338 13.3454 19.334 15.002V20.3359C19.3342 20.8881 19.7818 21.3359 20.334 21.3359Z" fill="#F7FAFF"/>
</svg>
