<svg width="173" height="80" viewBox="0 0 173 80" fill="none" xmlns="http://www.w3.org/2000/svg">
<path d="M69.8711 58.8911V53.4922H75.393V54.4146H71.1255V55.6198H73.6221V56.5421H71.1255V57.8827H75.4422V58.8911H69.8711Z" fill="white"/>
<path d="M76.932 58.8911L79.49 56.124L76.8828 53.4922H78.5554L80.2771 55.3246L81.9128 53.4922H83.3517L81.0027 55.9764L83.9174 58.8911H82.2079L80.2402 56.8004L78.4201 58.8911H76.932Z" fill="white"/>
<path d="M89.3182 54.4269H86.4896V55.8534H89.3182C89.5396 55.8534 89.6871 55.8289 89.7609 55.7674C89.847 55.7059 89.8839 55.5952 89.8839 55.423V54.8573C89.8839 54.6974 89.847 54.5867 89.7609 54.5252C89.6748 54.4637 89.5273 54.4269 89.3182 54.4269ZM85.2598 58.8911V53.4922H89.8716C90.302 53.4922 90.6095 53.5783 90.794 53.7382C90.9907 53.898 91.0891 54.1686 91.0891 54.5375V55.7428C91.0891 56.1117 90.9907 56.37 90.794 56.5421C90.6095 56.702 90.2897 56.7881 89.8716 56.7881H86.4896V58.8911H85.2598Z" fill="white"/>
<path d="M93.0234 58.8911V53.4922H98.5453V54.4146H94.2779V55.6198H96.7744V56.5421H94.2779V57.8827H98.5945V58.8911H93.0234Z" fill="white"/>
<path d="M104.966 54.4269H102.137V55.9272H104.966C105.187 55.9272 105.335 55.9026 105.408 55.8289C105.494 55.7674 105.531 55.6567 105.531 55.4968V54.845C105.531 54.6851 105.494 54.5744 105.408 54.5129C105.335 54.4637 105.187 54.4269 104.966 54.4269ZM100.907 58.8911V53.4922H105.519C105.95 53.4922 106.257 53.5783 106.441 53.7382C106.638 53.898 106.737 54.1686 106.737 54.5375V55.8043C106.737 56.1732 106.638 56.4315 106.441 56.6036C106.257 56.7758 105.937 56.8496 105.519 56.8496H104.806L107.302 58.8788H105.494L103.318 56.8496H102.125V58.8911H100.907Z" fill="white"/>
<path d="M109.287 58.8911V53.4922H110.542V58.8911H109.287Z" fill="white"/>
<path d="M113.297 58.8911V53.4922H118.819V54.4146H114.551V55.6198H117.048V56.5421H114.551V57.8827H118.868V58.8911H113.297Z" fill="white"/>
<path d="M121.169 58.8911V53.4922H122.03L125.83 56.6774C125.965 56.7881 126.076 56.8865 126.174 56.9849C126.273 57.071 126.359 57.1694 126.445 57.2677C126.42 56.9603 126.408 56.7512 126.408 56.6159C126.408 56.493 126.396 56.3946 126.396 56.3208V53.4922H127.515V58.8911H126.654L122.694 55.5583C122.596 55.4722 122.509 55.3984 122.448 55.3246C122.374 55.2508 122.313 55.1893 122.251 55.1156C122.263 55.2754 122.276 55.4353 122.288 55.5829C122.3 55.7305 122.3 55.8657 122.3 55.9764V58.8911H121.169Z" fill="white"/>
<path d="M134.788 54.4637H131.406V57.8827H134.788V56.7143L136.043 56.9849V57.6121C136.043 58.104 135.944 58.4484 135.76 58.6205C135.575 58.7927 135.231 58.8911 134.702 58.8911H131.48C130.951 58.8911 130.595 58.805 130.41 58.6205C130.226 58.4361 130.14 58.104 130.14 57.6121V54.7712C130.14 54.2793 130.226 53.9472 130.41 53.7627C130.595 53.5783 130.951 53.4922 131.48 53.4922H134.702C135.219 53.4922 135.575 53.5783 135.76 53.7627C135.944 53.9472 136.043 54.2793 136.043 54.7712V55.2877L134.788 55.4845V54.4637Z" fill="white"/>
<path d="M138.64 58.8911V53.4922H144.162V54.4146H139.894V55.6198H142.391V56.5421H139.894V57.8827H144.211V58.8911H138.64Z" fill="white"/>
<path d="M151.197 54.4392H147.667V55.5952H151.024C151.553 55.5952 151.91 55.6813 152.094 55.8657C152.279 56.0502 152.377 56.3823 152.377 56.8742V57.6121C152.377 58.104 152.279 58.4361 152.094 58.6205C151.91 58.805 151.553 58.8911 151.024 58.8911H147.692C147.163 58.8911 146.806 58.805 146.622 58.6205C146.437 58.4361 146.339 58.104 146.339 57.6121V57.4645L147.446 57.2308V57.8704H151.258V56.6405H147.901C147.372 56.6405 147.015 56.5544 146.831 56.37C146.646 56.1855 146.56 55.8534 146.56 55.3615V54.7712C146.56 54.2793 146.646 53.9472 146.831 53.7627C147.015 53.5783 147.372 53.4922 147.901 53.4922H150.963C151.467 53.4922 151.824 53.5783 152.008 53.7627C152.193 53.9349 152.291 54.2424 152.291 54.6851V54.7958L151.184 55.0541V54.4392H151.197Z" fill="white"/>
<path d="M20.5752 46.6847L27.6098 26.8353C27.8803 26.0852 28.5936 25.5809 29.393 25.5809H33.1194L35.3577 31.7177L32.0863 33.8699L30.9057 30.0698H30.5491L27.9049 38.2112L28.1509 38.1989C28.2616 38.1989 28.36 38.1497 28.4338 38.0882C29.4914 37.1905 37.2639 30.7954 47.9019 27.0198C56.8796 23.8346 60.0279 23.2935 64.566 22.5556C69.104 21.8177 76.5813 21.0429 81.5744 21.0921C102.764 21.338 108.938 23.2812 113.98 24.0805C119.023 24.8799 127.914 26.8968 127.914 26.8968C127.914 26.8968 115.026 24.3634 104.056 23.2443C93.0856 22.1251 84.8212 22.2727 84.8212 22.2727C84.8212 22.2727 78.34 22.1128 68.2431 23.687C58.2939 25.2366 55.2439 26.5156 48.8242 28.8154C44.692 30.2911 38.3953 34.0913 37.0548 34.903C36.8949 35.0014 36.7966 35.1735 36.7966 35.358C36.7966 35.4687 36.8212 35.5794 36.8581 35.6901L40.8427 46.6847H36.3046L33.2424 37.6332L26.0356 44.1759L25.1747 46.6847H20.5752Z" fill="white"/>
<path d="M57.6911 37.2139C57.3222 32.3807 54.7272 31.0033 53.2392 30.5114C52.0831 30.1178 50.6319 29.7366 48.1846 30.1424C46.8318 30.3638 45.4667 30.9295 44.2737 31.9011C42.3798 33.4507 42.2568 35.7381 42.2568 36.6113V55.1324L44.4951 55.1447C45.5282 55.1447 46.3767 54.3207 46.389 53.2877V53.1524V44.7281H46.635C46.635 44.7281 47.4467 47.114 51.5666 47.0279C56.1169 46.9295 58.0478 41.9856 57.6911 37.2139ZM53.5097 39.2554C53.5097 41.1985 52.3414 43.4491 49.9678 43.4491C47.7541 43.4491 46.4259 41.1985 46.4259 39.2554V37.755C46.4259 35.8119 47.5943 33.549 49.9678 33.5613C52.3045 33.549 53.5097 35.8119 53.5097 37.755V39.2554Z" fill="white"/>
<path d="M74.3181 37.2139C73.9491 32.3807 71.3542 31.0033 69.8661 30.5114C68.7101 30.1178 67.2589 29.7366 64.8115 30.1424C63.4587 30.3638 62.0936 30.9295 60.9007 31.9011C59.0068 33.4507 58.8838 35.7381 58.8838 36.6113V55.1324L61.1221 55.1447C62.1551 55.1447 63.0037 54.3207 63.016 53.2877V53.1524V44.7281H63.262C63.262 44.7281 64.0736 47.114 68.1936 47.0279C72.7439 46.9295 74.6747 41.9856 74.3181 37.2139ZM70.1244 39.2554C70.1244 41.1985 68.956 43.4491 66.5825 43.4491C64.3688 43.4491 63.0406 41.1985 63.0406 39.2554V37.755C63.0406 35.8119 64.2089 33.549 66.5825 33.5613C68.9192 33.549 70.1244 35.8119 70.1244 37.755V39.2554Z" fill="white"/>
<path d="M93.1473 29.9709C93.1473 29.9709 85.7314 29.6265 85.7314 38.1738C85.7314 42.06 86.9859 47.0408 93.135 47.0408C99.2841 47.0408 100.563 42.06 100.563 38.1738C100.563 29.6142 93.1473 29.9709 93.1473 29.9709ZM96.517 39.1699C96.517 41.6665 95.0781 43.3636 92.9751 43.3636C90.8844 43.3636 89.4332 41.5927 89.4332 39.1699V37.6696C89.4332 35.3083 90.8967 33.5251 92.9628 33.5251C95.0412 33.5251 96.5047 35.296 96.5047 37.6696V39.1699H96.517Z" fill="white"/>
<path d="M75.8307 46.683H80.0367V38.185C80.0367 36.291 81.574 34.7661 83.4556 34.7661H85.0052V30.3633H83.4433C79.1882 30.3633 75.7446 33.8314 75.7815 38.0866L75.8307 46.683Z" fill="white"/>
<path d="M99.874 30.3516L105.593 46.6836H110.291L115.985 30.3516H113.144C112.32 30.3516 111.607 30.8804 111.348 31.6552L108.102 41.6413H107.782L104.092 30.3516H99.874Z" fill="white"/>
<path d="M125.245 42.222C124.421 43.132 123.142 43.6117 121.777 43.2796C120.203 42.8984 119.588 41.398 119.588 39.7746H130.127C130.177 39.2458 130.201 38.7293 130.201 38.225C130.201 29.727 122.81 29.9852 122.81 29.9852C122.81 29.9852 115.443 29.727 115.443 38.225C115.443 42.099 116.685 47.0429 122.81 47.0429C127.139 47.0429 129.033 44.5709 129.771 41.7546H126.34C125.921 41.7423 125.528 41.9145 125.245 42.222ZM122.699 33.5517C124.802 33.5517 126.044 35.0152 126.155 36.8599V36.8722C126.155 36.8722 119.576 36.8722 119.576 36.8599C119.674 35.0275 120.867 33.5517 122.699 33.5517Z" fill="white"/>
<path d="M130.657 24.0081L130.005 23.8359L130.559 27.5746L128.259 30.5754L128.923 30.7475L132.354 28.0296L130.657 24.0081Z" fill="white"/>
<path d="M127.484 25.4232L127.078 25.3125L126.967 26.6407L126.414 27.8705L126.82 27.9689L127.914 26.8744L127.484 25.4232Z" fill="white"/>
<path d="M134.814 28.6822C134.765 28.8912 134.433 28.965 134.273 28.9773C134.015 29.0142 133.695 28.9773 133.412 28.9158C131.813 28.5715 127.115 27.0957 127.115 27.0957L127.324 26.3086C127.324 26.3086 132.17 27.3048 133.719 27.7844C134.002 27.8705 134.285 28.0057 134.506 28.1533C134.617 28.2517 134.863 28.4854 134.814 28.6822Z" fill="white"/>
<path d="M131.26 39.7748C131.628 44.608 134.223 45.9854 135.711 46.4773C136.868 46.8709 138.319 47.2521 140.766 46.8463C142.119 46.6249 143.484 46.0592 144.677 45.0876C146.571 43.538 146.694 41.2506 146.694 40.3774V27.4642C146.694 26.4189 145.858 25.5826 144.812 25.5703H142.562V32.2606H142.316C142.316 32.2606 141.504 29.8747 137.384 29.9608C132.821 30.0592 130.903 35.0154 131.26 39.7748ZM135.441 37.7333C135.441 35.7901 136.609 33.5396 138.983 33.5396C141.196 33.5396 142.525 35.7901 142.525 37.7333V39.2336C142.525 41.1768 141.356 43.4396 138.983 43.4273C136.646 43.4396 135.441 41.1768 135.441 39.2336V37.7333Z" fill="white"/>
</svg>
