<svg width="28" height="28" viewBox="0 0 28 28" fill="none" xmlns="http://www.w3.org/2000/svg">
<path d="M13.7432 0C16.6641 -1.81198e-05 18.9588 0.000387341 20.75 0.241211C22.5854 0.488009 24.0414 1.00426 25.1855 2.14844C26.3297 3.29262 26.846 4.74863 27.0928 6.58398C27.3336 8.37521 27.334 10.6699 27.334 13.5908V13.7432C27.334 16.6641 27.3336 18.9588 27.0928 20.75C26.846 22.5854 26.3297 24.0414 25.1855 25.1855C24.0414 26.3297 22.5854 26.846 20.75 27.0928C18.9588 27.3336 16.6641 27.334 13.7432 27.334H13.5908C10.6699 27.334 8.37521 27.3336 6.58398 27.0928C4.74864 26.846 3.29261 26.3297 2.14844 25.1855C1.00427 24.0414 0.48801 22.5854 0.241211 20.75C0.000387341 18.9588 -1.81198e-05 16.6641 0 13.7432V13.5908C-1.81198e-05 10.6699 0.000387341 8.37521 0.241211 6.58398C0.488013 4.74863 1.00426 3.29262 2.14844 2.14844C3.29262 1.00426 4.74864 0.488015 6.58398 0.241211C8.37521 0.000387341 10.6699 -1.81198e-05 13.5908 0H13.7432ZM13.667 2C10.6532 2 8.49311 2.0028 6.85059 2.22363C5.23703 2.44061 4.27318 2.85182 3.5625 3.5625C2.85183 4.27318 2.44061 5.23702 2.22363 6.85059C2.0028 8.49312 2 10.6532 2 13.667C2 16.6808 2.0028 18.8409 2.22363 20.4834C2.44061 22.097 2.85183 23.0608 3.5625 23.7715C4.27318 24.4822 5.23703 24.8934 6.85059 25.1104C8.49311 25.3312 10.6532 25.334 13.667 25.334C16.6808 25.334 18.8409 25.3312 20.4834 25.1104C22.097 24.8934 23.0608 24.4822 23.7715 23.7715C24.4822 23.0608 24.8934 22.097 25.1104 20.4834C25.3312 18.8409 25.334 16.6808 25.334 13.667C25.334 10.6532 25.3312 8.49312 25.1104 6.85059C24.8934 5.23702 24.4822 4.27318 23.7715 3.5625C23.0608 2.85183 22.097 2.4406 20.4834 2.22363C18.8409 2.0028 16.6808 2 13.667 2ZM10.7041 6C11.0252 6.00001 11.3267 6.15473 11.5146 6.41504L14.8652 11.0547L19.627 6.29297C20.0175 5.90277 20.6506 5.90258 21.041 6.29297C21.4314 6.68339 21.4312 7.31648 21.041 7.70703L16.0518 12.6963L21.1445 19.748C21.3644 20.0525 21.3946 20.4547 21.2236 20.7891C21.0527 21.1232 20.7093 21.3339 20.334 21.334H16.6299C16.3088 21.3339 16.0073 21.1792 15.8193 20.9189L12.4688 16.2793L7.70703 21.041C7.31648 21.4312 6.68338 21.4314 6.29297 21.041C5.90259 20.6506 5.90279 20.0175 6.29297 19.627L11.2822 14.6377L6.18945 7.58594C5.96961 7.28151 5.9394 6.87926 6.11035 6.54492C6.2813 6.21083 6.62472 6.00014 7 6H10.7041ZM17.1416 19.334H18.3779L10.1924 8H8.95605L17.1416 19.334Z" fill="#F7FAFF"/>
</svg>
